<svg width="300" height="100" viewBox="0 0 718 156" fill="none" xmlns="http://www.w3.org/2000/svg">
<ellipse cx="359" cy="78" rx="359" ry="78" fill="#185D9D" fill-opacity="0.69"/>
<path d="M141.072 101H147.622V84.6H153.922C156.605 84.6 158.964 84.0917 160.997 83.075C163.047 82.0417 164.647 80.5833 165.797 78.7C166.947 76.8 167.522 74.5417 167.522 71.925C167.522 69.2917 166.947 67.075 165.797 65.275C164.647 63.4583 163.047 62.0833 160.997 61.15C158.964 60.2167 156.605 59.75 153.922 59.75H141.072V101ZM147.622 79.3V65H151.997C154.464 65 156.53 65.575 158.197 66.725C159.864 67.875 160.697 69.6667 160.697 72.1C160.697 74.5167 159.864 76.325 158.197 77.525C156.53 78.7083 154.464 79.3 151.997 79.3H147.622ZM226.033 101H232.583V84.8H235.508L247.858 101H256.158L242.583 84.075C245.666 83.4417 248.083 82.05 249.833 79.9C251.6 77.75 252.483 75.0917 252.483 71.925C252.483 68.0917 251.258 65.1083 248.808 62.975C246.358 60.825 243.05 59.75 238.883 59.75H226.033V101ZM232.583 79.3V65H236.958C239.708 65 241.841 65.625 243.358 66.875C244.891 68.125 245.658 69.8667 245.658 72.1C245.658 74.35 244.891 76.1167 243.358 77.4C241.825 78.6667 239.691 79.3 236.958 79.3H232.583ZM312.752 101H319.302V59.75H312.752V101ZM399.73 101.8C402.314 101.8 404.739 101.425 407.005 100.675C409.289 99.925 411.239 98.9583 412.855 97.775L409.98 92.225C408.73 93.225 407.247 94 405.53 94.55C403.814 95.1 402.005 95.375 400.105 95.375C397.105 95.375 394.43 94.7167 392.08 93.4C389.73 92.0667 387.88 90.275 386.53 88.025C385.18 85.7583 384.505 83.2167 384.505 80.4C384.505 77.5833 385.18 75.05 386.53 72.8C387.88 70.5333 389.73 68.7417 392.08 67.425C394.43 66.0917 397.105 65.425 400.105 65.425C402.005 65.425 403.814 65.7 405.53 66.25C407.247 66.8 408.73 67.575 409.98 68.575L412.855 63.025C411.189 61.8083 409.214 60.8333 406.93 60.1C404.647 59.3667 402.23 59 399.68 59C396.58 59 393.68 59.55 390.98 60.65C388.297 61.7333 385.93 63.25 383.88 65.2C381.847 67.15 380.255 69.425 379.105 72.025C377.955 74.6083 377.38 77.4 377.38 80.4C377.38 83.4 377.955 86.2 379.105 88.8C380.255 91.3833 381.847 93.65 383.88 95.6C385.93 97.55 388.305 99.075 391.005 100.175C393.705 101.258 396.614 101.8 399.73 101.8ZM470.32 101H492.495V95.25H476.87V83.2H491.895V77.45H476.87V65.5H492.495V59.75H470.32V101ZM552.84 101H559.39V84.8H562.315L574.665 101H582.965L569.39 84.075C572.473 83.4417 574.89 82.05 576.64 79.9C578.406 77.75 579.29 75.0917 579.29 71.925C579.29 68.0917 578.065 65.1083 575.615 62.975C573.165 60.825 569.856 59.75 565.69 59.75H552.84V101ZM559.39 79.3V65H563.765C566.515 65 568.648 65.625 570.165 66.875C571.698 68.125 572.465 69.8667 572.465 72.1C572.465 74.35 571.698 76.1167 570.165 77.4C568.631 78.6667 566.498 79.3 563.765 79.3H559.39Z" fill="black"/>
</svg>
