<svg width="100" height="100" viewBox="0 0 500 537" fill="none" xmlns="http://www.w3.org/2000/svg">
<circle cx="250" cy="250" r="250" fill="#8DBDC8"/>
<path d="M180.578 306.266H124.328C124.849 301.708 126.151 297.411 128.234 293.375C130.188 289.339 132.661 285.823 135.656 282.828C138.781 279.703 142.297 277.294 146.203 275.602C150.109 273.779 154.211 272.867 158.508 272.867H180.383V112.906H325.891C330.969 112.906 335.721 114.208 340.148 116.812C344.706 119.286 348.677 122.802 352.062 127.359C355.448 131.786 358.117 137.06 360.07 143.18C362.023 149.169 363 155.615 363 162.516V257.047C363 263.948 362.023 270.393 360.07 276.383C358.117 282.242 355.448 287.451 352.062 292.008C348.677 296.435 344.706 299.951 340.148 302.555C335.721 305.029 330.969 306.266 325.891 306.266H227.453V409H180.578V306.266ZM317.492 272.867V145.914H227.258V272.867H317.492Z" fill="black"/>
</svg>
